<svg fill="#5e265e" xmlns="http://www.w3.org/2000/svg" viewBox="0 0 90 71.1">
  <path d="M61.47,14.45a1.37,1.37,0,0,0-1.2.7l-16.68.62a1.37,1.37,0,0,0-2.3.41l-21.76,10a1.37,1.37,0,0,0-1.9,1.21L11.45,34l-1.24,1.17-.28,0a1.37,1.37,0,0,0-1.37,1.37h0a1.37,1.37,0,0,0,.42,1L5.68,49.37a1.37,1.37,0,0,0,.44,2.54l5,12a1.37,1.37,0,0,0,1.07,2.24h0a1.37,1.37,0,0,0,1.09-.54l11.66,2.66a1.37,1.37,0,0,0,2.46.64l8.46,2.35a1.37,1.37,0,0,0,2.61-.73l3.77-3.3a1.37,1.37,0,0,0,1.75-.43l4.55,1.54a1.37,1.37,0,0,0,1.62,1L59,78.54a1.37,1.37,0,0,0,1.35,1.61l.28,0,4.28,3.72a1.37,1.37,0,1,0,2.7.41l3.91-.84A1.37,1.37,0,0,0,74,82.58h0a1.37,1.37,0,0,0-1.87-1.28l-2.41-5.08a1.35,1.35,0,0,0,.19-1.05l1.55-2.32A1.37,1.37,0,0,0,73,72.31l5,.37a1.37,1.37,0,0,0,2.64-.53s0-.08,0-.12l2.78-4.41a1.37,1.37,0,0,0,.81-.45h2.62A1.37,1.37,0,1,0,89,65.61l4.76-7.19A1.37,1.37,0,0,0,94,55.73l-1.36-8.9a1.37,1.37,0,0,0-.69-2.56h-.15L82.64,28.33a1.37,1.37,0,0,0-1.86-1.91l-18-10.89a1.37,1.37,0,0,0-1.34-1.08Zm-1.33,1.74a1.37,1.37,0,0,0,1.16,1l2.07,9.13L43.94,16.87v-.08l16.2-.6Zm2.45.42L79.35,26.76l-13.58.1a1.37,1.37,0,0,0-1.22-.75h-.15l-2.09-9.2a1.37,1.37,0,0,0,.3-.31Zm-21.26.69a1.37,1.37,0,0,0,.31.41l-7.13,11a1.37,1.37,0,0,0-1.64.68L20.36,27.2A1.37,1.37,0,0,0,20.3,27l21-9.7Zm2.12.49,18.16,8.83L47,28.21Zm-.93.46L46,28.33,35.36,29.49l0-.08,7.21-11.17ZM63,27.5,49.84,35.42a1.37,1.37,0,0,0-.37-.17l-2.08-6Zm17.16.28a1.37,1.37,0,0,0,.31.71l-2.77,7.26L65.85,27.9h0l14.26-.1Zm-59.94.43,12.62,2.24a1.37,1.37,0,0,0,.19.39L22.82,41.33H22.7l-.26,0c-.08-.39-.15-.77-.25-1.28-.3-1.51-.7-3.47-1.1-5.42-.52-2.55-1-4.62-1.25-6.06a1.37,1.37,0,0,0,.33-.36Zm43.05.33L57.1,47.13a1.37,1.37,0,0,0-.38.16l-6.65-9.77a1.35,1.35,0,0,0,.35-1.25l12.8-7.72Zm2,.15,12.09,8-3.63,9.5h0a1.37,1.37,0,0,0-.5.09l-8-17.62h0Zm-46.66.07a1.37,1.37,0,0,0,.31.08c.3,1.45.73,3.51,1.24,6,.4,1.95.8,3.91,1.1,5.42l.21,1.06-10.09-5a1.37,1.37,0,0,0-.15-.43l1.05-1.13,6.34-6Zm63.27.17,8.82,15.43-12.08-8L81.35,29h.13a1.38,1.38,0,0,0,.32,0ZM64.16,29l8.18,18.09L58.71,48a1.37,1.37,0,0,0-.58-.7Zm-17.82.34,2.08,6a1.37,1.37,0,0,0-.4.33L35.8,30.48ZM34.87,31.2l12.8,5.46-7.17,4a1.37,1.37,0,0,0-.87-.31h-.1L34.86,31.2h0Zm-1,.25,4.77,9.34a1.37,1.37,0,0,0-.06,1.76L31.86,53.23h-.08a1.37,1.37,0,0,0-.53.11l-7.52-9.73a1.37,1.37,0,0,0,0-1.77L33.83,31.46Zm44.33,5.87L90.45,45.5l-15.79,1Zm-67.11,0,9.87,4.89L7.23,49.47a1.37,1.37,0,0,0-.44-.23l3.16-11.3a1.37,1.37,0,0,0,1.11-.58Zm37.1.21a1.37,1.37,0,0,0,.93.36h0l7,10.25a1.34,1.34,0,0,0,0,.61l-4.69,7.13a1.38,1.38,0,0,0-.34,0L40.79,42.45a1.32,1.32,0,0,0,.2-.89l7.16-4ZM40,43.05,50.24,56.59l0,0L33.1,54.24a1.37,1.37,0,0,0-.31-.56l6.65-10.6.19,0a1.38,1.38,0,0,0,.32,0Zm-18.6.13-5,10.95a1.37,1.37,0,0,0-.6.33l-8-4a1.37,1.37,0,0,0,0-.14Zm.69,1,2.53,17-6.66-5a1.37,1.37,0,0,0-.51-1.78Zm1.1.39,7.36,9.53A1.37,1.37,0,0,0,31.57,56l4.74,13.56a1.37,1.37,0,0,0-.29.26L25.75,62l-2.6-17.47Zm67.63,2-3,7.58L75,47.69s0-.06,0-.08,0-.06,0-.09l15.78-1Zm.84.68,1.33,8.67a1.37,1.37,0,0,0-.52.54l-3.71-1.85,2.91-7.35Zm-19.43.93L70.36,59.8,58.67,49h0l13.51-.9Zm.93.75a1.36,1.36,0,0,0,.91,0l7.49,9.9-9.74,1.55a1.37,1.37,0,0,0-.41-.28l1.75-11.21Zm2.3.17,12,6-1.19,3-3.55.57Zm-17.5.7L69.67,60.57a1.37,1.37,0,0,0-.24.78v0l-9.37,5.68a1.37,1.37,0,0,0-.58-.31L57.62,49.82a1.37,1.37,0,0,0,.3-.08Zm-1.33.17,1.81,16.5L52.56,58a1.37,1.37,0,0,0-.19-1.72ZM7.39,51.48l7.93,3.91v.07a1.37,1.37,0,0,0,.33.89l-3.58,7.06H12L7.15,51.69a1.37,1.37,0,0,0,.24-.21ZM33,55.27l16.95,2.37L43.3,64.73a1.36,1.36,0,0,0-1.39.26L33,55.27h0Zm55.35.24,3.36,1.68-4.3.69ZM32.94,56.75,41.45,66h0a1.37,1.37,0,0,0,.07.44l-3.61,3.15a1.37,1.37,0,0,0-.58-.28l-4.4-12.59Zm-15.81,0,7.67,5.81L25.45,67a1.37,1.37,0,0,0-.3.3L13.51,64.63a1.37,1.37,0,0,0-.46-.87l3.51-6.93h.13a1.37,1.37,0,0,0,.44-.07Zm75.58,1.31,0,0L88,65.26a1.38,1.38,0,0,0-.3.05l-2.14-2.83L86.95,59l5.76-.92Zm-42.22.48-1.34,8.23a1.37,1.37,0,0,0-.52.52L44.18,65.8a1.37,1.37,0,0,0-.12-.38l6.42-6.87Zm1.24.09,6.12,8.78-6.69.25a1.37,1.37,0,0,0-.95-1l1.3-8,.21,0Zm34,.54-.92,2.34-1.48-2Zm-3.55.57,2.19,2.89-.9,2.28a1.36,1.36,0,0,0-1.35.45L73,61.22l9.19-1.47Zm-9.79,2.33,9.4,4.27a1.37,1.37,0,0,0,.54,1L80.05,71a1.37,1.37,0,0,0-.78-.25l-.22,0-6.63-8.72Zm-2.57.27a1.37,1.37,0,0,0,.57.33l.7,7.74a1.37,1.37,0,0,0-.44,1.77l-1.4,2.1a1.37,1.37,0,0,0-1.47.05l-7.38-5.76a1.37,1.37,0,0,0,.08-.47s0-.06,0-.1l9.34-5.66Zm1.63.2,6.68,8.79a1.37,1.37,0,0,0-.17.31l-4.74-.35a1.37,1.37,0,0,0-1.12-1.1l-.69-7.62,0,0ZM26,63.46l8.34,6.32-6.69-1.86a1.37,1.37,0,0,0-1.16-1.18Zm59.16.14L86.91,66a1.37,1.37,0,0,0-.09.18H84.56a1.37,1.37,0,0,0-.2-.6l.77-1.93ZM57.81,68.45a1.37,1.37,0,0,0,1.14,1l.53,8.07L51,68.72v0l6.83-.25ZM60,69.53l7.26,5.66a1.37,1.37,0,0,0,0,.27s0,.07,0,.1l-5.83,2.3a1.37,1.37,0,0,0-.89-.45L60,69.53Zm7.69,7,.16.12-.94,2.51a1.37,1.37,0,0,0-1,.57l-4.15-.75s0-.07,0-.11l5.94-2.34Zm1.19.32L71,81.34l-2.66-1a1.37,1.37,0,0,0-.48-.92l1-2.63h0Zm-6.71,3.26,3.47.63a1.37,1.37,0,0,0,.54.89L66,82.82a1.37,1.37,0,0,0-.47.18l-3.38-2.94Zm5.9,1.28,3,1.11-3.77.81A1.37,1.37,0,0,0,67,83l.15-1.18a1.37,1.37,0,0,0,.89-.5Z" transform="translate(-5 -14.45)"/>
</svg>
