<svg fill="#fff" xmlns="http://www.w3.org/2000/svg" viewBox="0 0 511.52 234.47">
  <path d="M689.24,529.39a7.6,7.6,0,0,0-.23-1.77,11.6,11.6,0,0,0-2.38-5.07,11.8,11.8,0,0,0-9.15-4.22H361.64a7.58,7.58,0,0,0-1.73-.21H185.37a7.63,7.63,0,1,0,0,15.25H332.75l-4.29,22.24H213.33a7.63,7.63,0,1,0,0,15.25H325.51L311.78,642H250.19a7.63,7.63,0,0,0,0,15.25h58.65L293.25,738a12,12,0,0,0,1.38,8.31,7.55,7.55,0,0,0,9.94,5.83l.27,0H635.29a13,13,0,0,0,2-.18,7.59,7.59,0,0,0,10.41-7.74,13.47,13.47,0,0,0,1.17-3.34l40.22-208.45A12.46,12.46,0,0,0,689.24,529.39Zm-343.15,15.3L420,636.21,310.77,727.73Zm83.44,103.39L469.78,698a13.64,13.64,0,0,0,9.4,5,14.39,14.39,0,0,0,1.46.07,16.81,16.81,0,0,0,10.7-4l60.76-50.93,71.7,88.85H323.54Zm52,39.24a2.27,2.27,0,0,1-.5.31L356.72,533.58H665ZM635.88,727.6,563.8,638.28,670.35,549Z" transform="translate(-177.74 -518.11)"/>
</svg>
