<svg fill="#fff" xmlns="http://www.w3.org/2000/svg" viewBox="0 0 89.22 75.86">
  <path d="M94.89,37a7.32,7.32,0,0,0-.13.83c0,12.67,0,25.3,0,38A10.65,10.65,0,0,1,83.8,86.64H17c-5.71,0-9.66-3-11.16-8.59a1.15,1.15,0,0,0-.17-.27V25.66a1.66,1.66,0,0,0,.17-.43,10.53,10.53,0,0,1,9.82-8.52c.8-.07,1.2-.3,1.4-1s.74-1,1.54-1c3.24,0,6.52.07,9.76,0,.9,0,1.54.17,1.77,1.1.2.67.64.87,1.34.87,4,0,8,0,12,0h1V13.09c0-1.37.47-1.84,1.84-1.84H78.92c1.3,0,1.77.47,1.81,1.77V16.6h3.54a10.63,10.63,0,0,1,10.13,7.75c.13.53.3,1.07.43,1.64C94.89,29.67,94.89,33.34,94.89,37ZM50.24,83.9H72.7c3.81,0,7.65.07,11.46,0A7.82,7.82,0,0,0,92,75.71q0-14.54.07-29.07c0-6.48.07-12.93.07-19.42A7.81,7.81,0,0,0,85,19.47c-2.34-.13-4.68-.1-7-.07q-16.64,0-33.25.07H16.53a7.82,7.82,0,0,0-8,8q0,24.36,0,48.76A6.55,6.55,0,0,0,9.11,79a7.93,7.93,0,0,0,7.82,4.91C28,83.9,39.12,83.9,50.24,83.9Zm-3-67.47H78V14.09H47.27Z" transform="translate(-5.67 -10.78)"/>
  <path d="M28,10.78v3.11H19.34V10.78Z" transform="translate(-5.67 -10.78)"/>
  <path d="M38.65,52.69c0-14.1,11.3-25.2,25.6-25.2C78,27.49,89.14,39,89.14,53a25.25,25.25,0,0,1-50.49-.33Zm25.16,17a17,17,0,1,0-16.91-17A16.94,16.94,0,0,0,63.81,69.7Zm1.77,4.44A1.67,1.67,0,1,0,64,75.81,1.6,1.6,0,0,0,65.58,74.14ZM42.49,50.45a1.64,1.64,0,0,0-1.67,1.7,1.63,1.63,0,0,0,1.67,1.64,1.69,1.69,0,0,0,1.77-1.64A1.79,1.79,0,0,0,42.49,50.45ZM65.55,31.8A1.77,1.77,0,0,0,63.91,30a1.69,1.69,0,0,0-.1,3.37A1.61,1.61,0,0,0,65.55,31.8ZM85.3,50.45a1.58,1.58,0,0,0-1.67,1.6,1.65,1.65,0,0,0,1.7,1.7,1.53,1.53,0,0,0,1.6-1.67A1.56,1.56,0,0,0,85.3,50.45Z" transform="translate(-5.67 -10.78)"/>
  <path d="M21.84,56.77a10.23,10.23,0,0,1-9.93-10.33A10.06,10.06,0,0,1,32,47.08,9.94,9.94,0,0,1,21.84,56.77Zm.27-4a6,6,0,0,0,6-5.95A6.15,6.15,0,0,0,22,40.63a6.07,6.07,0,1,0,.07,12.13Z" transform="translate(-5.67 -10.78)"/>
  <path d="M69.09,52.72a5.21,5.21,0,1,1-5.15-5.18A5.22,5.22,0,0,1,69.09,52.72Z" transform="translate(-5.67 -10.78)"/>
</svg>
