<svg fill="#fff" xmlns="http://www.w3.org/2000/svg" viewBox="0 0 507.87 507.5">
  <path d="M354.9,274.5l9.5-9.5h0c9.5-9.5,9.4-26-.5-35.1l32.5-32.5a97.52,97.52,0,0,0,85-27.3c26.1-26.1,37.8-62.9,19.8-112l-51,50.9-36.9-9.2-9.2-36.9,51.1-51.1c-32-12.8-77-15.3-112,19.8a97.52,97.52,0,0,0-27.3,85l-76.7,76.7L101.4,55.5,61.5,2.3,2,61.8l53.2,39.9L192.9,239.4,20.1,412.2a57.16,57.16,0,0,0,0,80.8c12,12,47,30.2,80.8,0L229.5,364.4c1.6,2.8,18.9,15.5,35.1.5l9.5-9.5L411.8,493.1a57.13,57.13,0,0,0,80.8-80.8ZM333.5,121.9S320.6,78.8,354.7,43c18-18.8,44-26.7,69.2-23L386,57.9l13.8,55.4,55.4,13.8L493,89.3a80.91,80.91,0,0,1-23,69.2c-35.1,34.6-78.9,21.2-78.9,21.2l-38.7,38.7-5.7-5.7a24.57,24.57,0,0,0-34.6,0l-26.8,26.8-34.7-34.7ZM250.7,274.1,72.1,95.5,95.2,72.4,273.8,251ZM59.7,27.2l24.7,33L59.8,84.7,26.8,60ZM89.4,481.4c-6.9,9.6-36.2,21.5-57.7,0a40.86,40.86,0,0,1,0-57.7L204.5,250.9l34.7,34.7-26.8,26.8c-12.7,13.3-6,29.5,0,34.6l5.7,5.7ZM253.1,353.3a8.27,8.27,0,0,1-11.5,0l-17.7-17.7c-1.5-1.5-4.4-6.9,0-11.5l99.8-99.8a8.31,8.31,0,0,1,11.5,0L352.9,242a8.09,8.09,0,0,1,0,11.5l-90.3,90.3h0Zm228,128.1a40.8,40.8,0,0,1-57.6,0L285.7,343.7,343.4,286,481.1,423.7A40.86,40.86,0,0,1,481.1,481.4Z" transform="translate(-2 -2.3)"/>
  <rect x="389.69" y="389.98" width="16.3" height="16.3" transform="translate(-167 395.62) rotate(-45)"/>
  <rect x="412.8" y="413.09" width="16.3" height="16.3" transform="translate(-176.57 418.73) rotate(-45)"/>
  <rect x="366.58" y="366.91" width="16.3" height="16.3" transform="translate(-157.45 372.53) rotate(-45)"/>
  <rect x="38.44" y="443.5" width="46.1" height="16.3" transform="translate(-303.35 173.46) rotate(-45)"/>
</svg>
