<svg fill="#fff" xmlns="http://www.w3.org/2000/svg" viewBox="0 0 75.07 87.17">
  <path d="M27.71,67.76c0-5.24-1.92-8.14-7.16-8.14h-.94c-5.24,0-7.83,2.91-7.83,8.14v.49h0v5.34a3,3,0,0,0,3,3,2.34,2.34,0,0,0,.48-.05V87.44h9V76.51a2.4,2.4,0,0,0,.48.05,3,3,0,0,0,3-3V68.25h0Z" transform="translate(-11.8 -0.58)"/>
  <circle cx="7.96" cy="54.54" r="3.85"/>
  <path d="M42.62,66.21V69a3.29,3.29,0,0,0,3.29,3.29h.17l1,15.13a.31.31,0,0,0,.31.31h5.06a.31.31,0,0,0,.31-.31l1-15.13h.17A3.29,3.29,0,0,0,57.18,69V66.21a16.67,16.67,0,0,1-14.56,0Z" transform="translate(-11.8 -0.58)"/>
  <path d="M65.14,43.92h0L65,43.65q-.32-.66-.7-1.28L41.52.58h-19L33.17,53h0a16.84,16.84,0,0,0,9.43,13.17V63.48c0-4.79-.52-8.45,5.31-8.45h4.17c5.65,0,5.08,3.35,5.08,8.45v2.73a16.78,16.78,0,0,0,8-22.29ZM49.9,54.21a4.16,4.16,0,1,1,4.16-4.16A4.16,4.16,0,0,1,49.9,54.21Z" transform="translate(-11.8 -0.58)"/>
  <circle cx="67.81" cy="48.8" r="3.48"/>
  <path d="M86.86,72,84.65,59.94l-.16-1.73a4.36,4.36,0,0,0-4.36-4.35h-1a4.35,4.35,0,0,0-4.36,4.35h-.15L72.35,72H77l1,15.74h3.14l1-15.74Z" transform="translate(-11.8 -0.58)"/>
</svg>
