<svg fill="#fff" xmlns="http://www.w3.org/2000/svg" viewBox="0 0 56 88">
  <path d="M50,6A28.15,28.15,0,0,0,22,34.24c0,6.88,3.51,12.83,6.78,18.11S35,62.33,35,66s0,7.59,0,11.38a8.7,8.7,0,0,0,2.28,6.38A7.7,7.7,0,0,0,41,85.74a9,9,0,0,0,17.94,0,7.68,7.68,0,0,0,3.78-2A8.76,8.76,0,0,0,65,77.43V66c0-3.71,2.91-8.42,6.19-13.7S78,41.11,78,34.24A28.15,28.15,0,0,0,50,6Zm0,4A24.09,24.09,0,0,1,74,34.24c0,5.47-3,10.77-6.22,16-2.83,4.57-5.79,9-6.5,13.82l-6.53,0c1-6.22,1.86-13.11,2.75-19.14a7.45,7.45,0,0,0,4.91-1.22A2.15,2.15,0,0,0,63,42.21a5.31,5.31,0,0,0-1.53-4.16,3.44,3.44,0,0,0-5.28,1.85c-.15,1-.28,1.93-.41,2.81a9.87,9.87,0,0,1-4.34-1,15.2,15.2,0,0,0,2.22-2.66,4.88,4.88,0,0,0,.94-2.56A4.62,4.62,0,0,0,49.94,32a4.36,4.36,0,0,0-4.56,4.5,4.88,4.88,0,0,0,.94,2.56,16.11,16.11,0,0,0,2.22,2.66,10.56,10.56,0,0,1-4.28,1.34c-.16-1-.31-2.41-.47-3.31a3.35,3.35,0,0,0-5.28-1.72A5.27,5.27,0,0,0,37,42.21a2.63,2.63,0,0,0,1.5,2.22,8.18,8.18,0,0,0,4,.69c.92,6,1.86,12.77,2.72,18.89-2.27,0-4.69,0-6.56,0C38,59.25,35,54.79,32.19,50.22,29,45,26,39.71,26,34.24A24.43,24.43,0,0,1,50,10Zm0,24a2.39,2.39,0,0,1,2.59,2.47A3.88,3.88,0,0,1,52,38a16.38,16.38,0,0,1-2,2.38A14.23,14.23,0,0,1,48,38a3.88,3.88,0,0,1-.62-1.5C47.31,35.08,48.31,34.08,50,34.05ZM41.88,40c.14.81.23,2.24.37,3.14A5,5,0,0,1,39,42.21c0-1.14-.08-1.78.88-2.69,1-.54,2,.46,2,.46Zm18.22-.46A2.92,2.92,0,0,1,61,42.21a6.34,6.34,0,0,1-3.22.69c.13-.83.27-2,.41-2.78.59-.76,1.2-.63,1.91-.59ZM50,43.09c1.55,1.38,3.82,1.43,5.5,1.56-.91,6.16-1.81,13.16-2.78,19.36H47.25c-.85-6.08-1.79-12.84-2.72-18.92A13.28,13.28,0,0,0,50,43.09ZM61,68v5H39V68c7.21-.08,15,0,22,0Zm-22,9H61c0,1.35-.22,3-1.09,3.91a4.86,4.86,0,0,1-3.59,1.09H43.75A5,5,0,0,1,40.09,81,6.47,6.47,0,0,1,39,77.05Z" transform="translate(-22 -6)"/>
</svg>
