<svg fill="#5e265e" xmlns="http://www.w3.org/2000/svg" viewBox="0 0 120.33 178">
  <path d="M297.67,481.5A16.51,16.51,0,0,1,282.55,472l-41.1-87.14c-2.7-5.71-4-12.45-4-21.23a60.17,60.17,0,0,1,120.33,0c0,8.77-1.26,15.52-4,21.23l-41,87.17A16.85,16.85,0,0,1,297.67,481.5Zm0-173a55.23,55.23,0,0,0-55.17,55.17c0,8,1.1,14.07,3.48,19.09l41.11,87.18a11.67,11.67,0,0,0,10.58,6.56,11.83,11.83,0,0,0,10.7-6.57l41-87.17c2.37-5,3.48-11.08,3.48-19.09A55.23,55.23,0,0,0,297.67,308.5Zm0,86.5A31.33,31.33,0,1,1,329,363.67,31.37,31.37,0,0,1,297.67,395Zm0-57.67A26.33,26.33,0,1,0,324,363.67,26.36,26.36,0,0,0,297.67,337.33Z" transform="translate(-237.5 -303.5)"/>
</svg>
