<svg fill="#fff" xmlns="http://www.w3.org/2000/svg" viewBox="0 0 96.6 119.8">
  <defs>
    <style>.cls-1,.cls-2{stroke:#fff;stroke-miterlimit:10;}.cls-1{stroke-width:1.5px;}</style>
  </defs>
  <path class="cls-1" d="M104,120.1v-7.8h8.9a2.8,2.8,0,0,0,2.8-2.8v-13a2.8,2.8,0,0,0-2.8-2.8H104V24a3.59,3.59,0,0,0-3.6-3.6h-18V16.2a3,3,0,0,0-3-3H70.8a8.53,8.53,0,0,0-17,0H45.2a3,3,0,0,0-3,3v4.2h-18A3.59,3.59,0,0,0,20.6,24v96.1a3.59,3.59,0,0,0,3.6,3.6h76.1A3.55,3.55,0,0,0,104,120.1Zm10.3-23.6v13a1.32,1.32,0,0,1-1.3,1.3H91.7c-.2,0-.3.1-.5.2l-3.4,2.6v-2a.68.68,0,0,0-.7-.7H84.9a1.32,1.32,0,0,1-1.3-1.3v-13a1.32,1.32,0,0,1,1.3-1.3h28A1.27,1.27,0,0,1,114.3,96.5Zm-69-81.8h9.3a.68.68,0,0,0,.7-.7,7,7,0,0,1,14,0,.68.68,0,0,0,.7.7h9.3a1.54,1.54,0,0,1,1.5,1.5V26a1.54,1.54,0,0,1-1.5,1.5h-34A1.54,1.54,0,0,1,43.8,26V16.2A1.47,1.47,0,0,1,45.3,14.7ZM22.1,120.1V24a2.22,2.22,0,0,1,2.2-2.2h18V26a3,3,0,0,0,3,3H79.5a3,3,0,0,0,3-3V21.8h18a2.22,2.22,0,0,1,2.2,2.2V93.8H84.9a2.8,2.8,0,0,0-2.8,2.8v13a2.8,2.8,0,0,0,2.8,2.8h1.4v2.8a1,1,0,0,0,.4.7.37.37,0,0,0,.3.1c.2,0,.3-.1.5-.2l4.3-3.4h10.7v7.8a2.22,2.22,0,0,1-2.2,2.2h-76A2.38,2.38,0,0,1,22.1,120.1Z" transform="translate(-19.85 -4.65)"/>
  <path class="cls-2" d="M62.4,18.7a4.6,4.6,0,1,0-4.6-4.6A4.47,4.47,0,0,0,62.4,18.7Zm0-7.7a3.1,3.1,0,1,1-3.1,3.1A3.05,3.05,0,0,1,62.4,11Z" transform="translate(-19.85 -4.65)"/><path d="M94,74.8a3.48,3.48,0,0,0,3.5-3.5A3.54,3.54,0,0,0,94,67.8a3.48,3.48,0,0,0-3.5,3.5,3.08,3.08,0,0,0,.6,1.9L79.5,84.7,74.8,80a3.29,3.29,0,0,0,.6-1.9,3.5,3.5,0,0,0-7,0A3.08,3.08,0,0,0,69,80L54,95l-5.5-5.5a3.29,3.29,0,0,0,.6-1.9,3.5,3.5,0,0,0-7,0,4.14,4.14,0,0,0,.5,1.9L32.7,99a3.29,3.29,0,0,0-1.9-.6,3.5,3.5,0,1,0,3.5,3.5,3.29,3.29,0,0,0-.6-1.9l9.7-9.7a3.63,3.63,0,0,0,4,0l6.1,6.1a.73.73,0,0,0,1,0L69.9,81a3.29,3.29,0,0,0,1.9.6,3.08,3.08,0,0,0,1.9-.6l5.2,5.3a.73.73,0,0,0,1,0l12-12A5.37,5.37,0,0,0,94,74.8ZM30.7,104.1a2.11,2.11,0,0,1-2.1-2.1,2.1,2.1,0,1,1,2.1,2.1ZM43.9,88.9a2,2,0,0,1-.6-1.4,2.1,2.1,0,0,1,4.2,0,2.2,2.2,0,0,1-.6,1.5A2.27,2.27,0,0,1,43.9,88.9Zm26.5-9.4a2,2,0,0,1-.6-1.5A2.1,2.1,0,0,1,74,78a2.2,2.2,0,0,1-.6,1.5A2.17,2.17,0,0,1,70.4,79.5ZM94,69.2a2.1,2.1,0,0,1,0,4.2,2.1,2.1,0,0,1,0-4.2Z" transform="translate(-19.85 -4.65)"/>
  <path d="M29.7,59.8a27.73,27.73,0,0,0,1,2.6c.1.3.3.5.4.8a17.89,17.89,0,0,0,5.3,6.3c.1.1.2.1.3.2l.1.1c.7.5,1.4.9,2.2,1.4a22.06,22.06,0,0,0,6.1,2.1l.8.1a14.77,14.77,0,0,0,2.1.1,18.92,18.92,0,0,0,8.7-2.1l.1-.1a19,19,0,0,0,8-7.9,1.27,1.27,0,0,0,.1-.6.78.78,0,0,0-.4-.4L48.8,53.9l2-17.8a.71.71,0,0,0-.7-.8,17.93,17.93,0,0,0-7.6.7,17.63,17.63,0,0,0-7.4,4.2,17.28,17.28,0,0,0-4.4,6,19.29,19.29,0,0,0-1,13.6ZM55.5,70.2h0a18,18,0,0,1-9.4,1.6l-.8-.1a16.68,16.68,0,0,1-5.7-1.9,23.92,23.92,0,0,1-2.1-1.3l-.1-.1c-.1,0-.1-.1-.2-.2a17.08,17.08,0,0,1-4.9-5.8,2.51,2.51,0,0,0-.4-.7,12.2,12.2,0,0,1-.7-1.7l16.6-5L63,63.2A15.94,15.94,0,0,1,55.5,70.2ZM32,46.8a18.83,18.83,0,0,1,4.1-5.6,18.56,18.56,0,0,1,6.8-3.9,17.4,17.4,0,0,1,5-.8h1.3l-1.9,17L30.9,58.4A17.34,17.34,0,0,1,32,46.8Z" transform="translate(-19.85 -4.65)"/>
  <path d="M51.1,53.1l16,9c.1.1.2.1.4.1a.55.55,0,0,0,.6-.4,18.86,18.86,0,0,0,1.7-14.5,19.22,19.22,0,0,0-9-11.5,18.38,18.38,0,0,0-7.3-2.3.71.71,0,0,0-.8.7l-2,18.3A1.52,1.52,0,0,0,51.1,53.1Zm3-18.1a17.65,17.65,0,0,1,13,25.5L52.3,52Z" transform="translate(-19.85 -4.65)"/><path d="M88.9,101.6H109a.7.7,0,0,0,0-1.4H88.9a.7.7,0,1,0,0,1.4Z" transform="translate(-19.85 -4.65)"/><path d="M105.5,104.8H92.4a.7.7,0,1,0,0,1.4h13.1a.68.68,0,0,0,.7-.7C106.3,105.1,105.9,104.8,105.5,104.8Z" transform="translate(-19.85 -4.65)"/>
</svg>
