<svg fill="#fff" xmlns="http://www.w3.org/2000/svg" viewBox="0 0 87.98 88.01">
  <path d="M82.76,6a2,2,0,0,0-1.09.5l-9,8A2,2,0,0,0,72,16v9.16L39.6,57.57a2,2,0,1,0,2.81,2.84L74.82,28H84a2,2,0,0,0,1.5-.69l8-9A2,2,0,0,0,92,15H85V8a2.09,2.09,0,0,0-2.25-2ZM41,24A35.06,35.06,0,1,0,67.76,36.48L59.23,45A22.79,22.79,0,1,1,55,40.76l8.5-8.53A34.82,34.82,0,0,0,41,24Zm0,16a19,19,0,1,0,15.38,7.84c-2.65,2.69-5.4,5.33-8,8a8,8,0,1,1-4.28-4.25c2.68-2.62,5.36-5.33,8-8A18.9,18.9,0,0,0,41,40Z" transform="translate(-6.01 -5.99)"/>
</svg>
