<svg fill="#fff" xmlns="http://www.w3.org/2000/svg" viewBox="0 0 64.08 64.08">
  <path d="M35.77,56.36l-3.18-3.18a4.6,4.6,0,0,0-5.66-.71l-2.19,1.34a22.12,22.12,0,0,0-10,13.29l-2.55,9.76,9.76-2.55a22.12,22.12,0,0,0,13.29-10l1.34-2.19A4.8,4.8,0,0,0,35.77,56.36Zm-9.19,10-5.52,1.41,1.41-5.52a12.35,12.35,0,0,1,5.59-7.42l1.27-.71a2.56,2.56,0,0,1,3.18.35l1.77,1.77a2.56,2.56,0,0,1,.35,3.18l-.71,1.27A11.45,11.45,0,0,1,26.58,66.4Z" transform="translate(-12.15 -12.79)"/>
  <path d="M28.34,43a2,2,0,0,0,.35,2.47l4.74,4.17a63.15,63.15,0,0,1,6.15,6.15l4,4.53a1.86,1.86,0,0,0,2.4.42A63.65,63.65,0,0,0,75.51,18.32l.71-3.82a1.5,1.5,0,0,0-1.7-1.7l-3.11.57A64.84,64.84,0,0,0,28.34,43Zm35-17.61a6,6,0,1,1-8.49,0A6,6,0,0,1,63.34,25.39Z" transform="translate(-12.15 -12.79)"/>
  <path d="M51.89,59l3.32,8.27a1.17,1.17,0,0,0,2.12.28l1.91-2.76a22.06,22.06,0,0,0,3.68-15.56.49.49,0,0,0-.92-.21,66.8,66.8,0,0,1-9.62,9.33l-.14.14C51.89,58.62,51.82,58.84,51.89,59Z" transform="translate(-12.15 -12.79)"/>
  <path d="M21.55,33.66,29.83,37a.71.71,0,0,0,.64-.21l.14-.14A60,60,0,0,1,39.94,27a.49.49,0,0,0-.21-.92,22.06,22.06,0,0,0-15.56,3.68l-2.76,1.91a1,1,0,0,0,.14,2Z" transform="translate(-12.15 -12.79)"/>
</svg>
