<svg fill="#fff" xmlns="http://www.w3.org/2000/svg" viewBox="0 0 242 242">
  <path d="M295,448.29a121,121,0,1,1,121-121A121.14,121.14,0,0,1,295,448.29Zm0-233a112,112,0,1,0,112,112A112.13,112.13,0,0,0,295,215.29Z" transform="translate(-173.99 -206.29)"/>
  <path d="M290.38,357.18c-2.44,0-4.51-2.07-4.89-5.08L283.43,331a5.74,5.74,0,0,1,5.45-6.58c19.93-1.5,32.52-10.34,32.52-26.13V298c0-13.54-10.53-24.44-27.45-24.44-12.6,0-22.56,5.45-31,14.66a7.78,7.78,0,0,1-5.08,2.07,6.58,6.58,0,0,1-6.77-6.58,7.34,7.34,0,0,1,2.26-5.08c10-10.9,22.75-18.42,41-18.42,25.38,0,42.11,15.79,42.11,37.23v.38c0,23.5-17.67,35.16-39.1,38.16L296,352.1c-.38,3-2.26,5.08-4.89,5.08Zm.19,15.6a8.75,8.75,0,0,1,9,8.84v3.76a9,9,0,1,1-18,0v-3.76A8.75,8.75,0,0,1,290.57,372.78Z" transform="translate(-173.99 -206.29)"/>
</svg>
