<svg fill="#fff" xmlns="http://www.w3.org/2000/svg" viewBox="0 0 100.35 89.53">
  <defs><style>.cls-1{fill:none;stroke:#fff;stroke-miterlimit:10;stroke-width:4px;}</style></defs>
  <path class="cls-1" d="M1.82,91a16.06,16.06,0,0,1,9.91-14.83,10.95,10.95,0,1,1,12.3,0,16.1,16.1,0,0,1,5.86,4.2,21.7,21.7,0,0,1,11.81-12,14.76,14.76,0,1,1,16.59,0,21.7,21.7,0,0,1,11.81,12A16.09,16.09,0,0,1,76,76.12a10.95,10.95,0,1,1,12.31,0A16.06,16.06,0,0,1,98.17,91" transform="translate(0.18 -1.48)"/>
  <path d="M52.67,1.48H47.33A2.63,2.63,0,0,0,44.7,4.11h0v14.6H42.85a2.15,2.15,0,0,0-1.75,3.41l7.15,10a2.15,2.15,0,0,0,3.5,0l7.15-10a2.15,2.15,0,0,0-1.75-3.41H55.3V4.11a2.63,2.63,0,0,0-2.63-2.63Z" transform="translate(0.18 -1.48)"/>
</svg>
