<svg fill="#5e265e" xmlns="http://www.w3.org/2000/svg" viewBox="0 0 85.66 31.67">
  <path d="M90.81,39.37a1.06,1.06,0,0,0-.62-.9c-.28-.13-7-3.14-19-3.14a42.84,42.84,0,0,0-13.46,1.94,41.34,41.34,0,0,1-9.41,1.46,41.34,41.34,0,0,1-9.41-1.46,42.84,42.84,0,0,0-13.46-1.94c-12,0-18.71,3-19,3.14a1.06,1.06,0,0,0-.62.9L5.5,44.52a1.08,1.08,0,0,0,.68,1.06,2.8,2.8,0,0,1,1.07.68c.06.18.17.75.34,1.57a80.32,80.32,0,0,0,2.79,10.77c1.43,3.77,3,5.38,6.5,6.91A23.27,23.27,0,0,0,25.42,67a21.21,21.21,0,0,0,8.28-1.54c6.1-2.63,7.56-6.62,9.42-11.67.27-.75.51-1.43.72-2,1.12-3.2,2.76-4,4.5-4.15,1.74.16,3.38.95,4.5,4.15.21.61.45,1.28.72,2,1.86,5,3.32,9,9.42,11.67A21.21,21.21,0,0,0,71.25,67a23.27,23.27,0,0,0,8.53-1.48c3.55-1.53,5.07-3.14,6.5-6.91a80.32,80.32,0,0,0,2.79-10.77c.17-.81.28-1.38.34-1.57a2.8,2.8,0,0,1,1.07-.68,1.08,1.08,0,0,0,.68-1.06ZM39,57.87c-2.21,4.58-8.28,6.91-13.78,6.91s-9-1.25-11.06-4.06S9.71,46.39,11.31,42.81c1.53-3.43,8.6-4.66,14.71-4.66,6.42,0,14,1.33,15.6,4.23S42.25,51.15,39,57.87Zm43.47,2.85c-2.09,2.8-5.5,4.06-11.06,4.06s-11.57-2.33-13.78-6.91C54.42,51.15,53.44,45.36,55,42.38s9.18-4.23,15.6-4.23c6.11,0,13.18,1.23,14.71,4.66C87,46.39,84.51,58,82.49,60.72Z" transform="translate(-5.5 -35.33)"/>
</svg>
