<svg fill="#fff" xmlns="http://www.w3.org/2000/svg" viewBox="0 0 64.83 64.83">
  <defs><style>.cls-1{fill:none;stroke:#fff;stroke-miterlimit:10;stroke-width:1.5px;}</style></defs>
  <path d="M42.29,61.54l-3.18-3.18a4.6,4.6,0,0,0-5.66-.71L31.26,59a22.12,22.12,0,0,0-10,13.29L18.67,82l9.76-2.55a22.12,22.12,0,0,0,13.29-10l1.34-2.19A4.8,4.8,0,0,0,42.29,61.54Zm-9.19,10L27.58,73,29,67.48a12.35,12.35,0,0,1,5.59-7.42l1.27-.71A2.56,2.56,0,0,1,39,59.7l1.77,1.77a2.56,2.56,0,0,1,.35,3.18l-.71,1.27A11.45,11.45,0,0,1,33.1,71.58Z" transform="translate(-18.67 -17.21)"/>
  <path class="cls-1" d="M34.86,48.17a2,2,0,0,0,.35,2.47L40,54.82A63.15,63.15,0,0,1,46.11,61l4,4.53a1.86,1.86,0,0,0,2.4.42A63.65,63.65,0,0,0,82,23.49l.71-3.82A1.5,1.5,0,0,0,81,18l-3.11.57A64.84,64.84,0,0,0,34.86,48.17Zm35-17.61a6,6,0,1,1-8.49,0A6,6,0,0,1,69.87,30.57Z" transform="translate(-18.67 -17.21)"/>
  <path class="cls-1" d="M57.84,62.53l-.14.14c-.35.07-.42.28-.35.49l3.32,8.27a1.17,1.17,0,0,0,2.12.28L64.7,69A22.06,22.06,0,0,0,68.38,53.4a.49.49,0,0,0-.92-.21" transform="translate(-18.67 -17.21)"/>
  <path class="cls-1" d="M47.52,33.25a.49.49,0,0,0-.21-.92A22.06,22.06,0,0,0,31.75,36L29,37.92a1,1,0,0,0,.14,2l8.27,3.32A.71.71,0,0,0,38,43l.14-.14" transform="translate(-18.67 -17.21)"/>
</svg>
