<svg id="Layer_1" data-name="Layer 1" xmlns="http://www.w3.org/2000/svg" viewBox="0 0 353.99 353.98"><defs><style>.cls-1{fill:#dee0e1;}.cls-2{fill:#b6d457;}.cls-3{fill:#231f20;}.cls-4{fill:#859b3b;}.cls-5{fill:#4265af;}.cls-6{fill:#fff;}.cls-7{fill:#5e265e;}</style></defs><title>sylo-map</title><polygon class="cls-1" points="281.03 211.23 207.53 170.37 187.4 206.95 260.89 247.82 281.03 211.23"/><path class="cls-1" d="M341.55,111.66,333,127.21l2.41,1.34L342.84,115C342.42,113.9,342,112.78,341.55,111.66Z" transform="translate(-0.01 -0.02)"/><path class="cls-1" d="M192.84.71,172.37,37.9l78.39,43.59,20.91-38L195.08.9Z" transform="translate(-0.01 -0.02)"/><polygon class="cls-1" points="230.89 127.93 209.94 165.99 283.44 206.85 304.38 168.8 230.89 127.93"/><polygon class="cls-1" points="311.16 172.57 308.75 171.23 287.81 209.28 290.21 210.62 311.16 172.57"/><polygon class="cls-1" points="330.57 131.57 311.16 166.85 313.57 168.19 332.98 132.91 330.57 131.57"/><polygon class="cls-1" points="100.27 158.51 120.4 121.93 53.16 84.54 47.11 128.95 100.27 158.51"/><path class="cls-1" d="M208.89,2.87l65.19,36.25,4.06-7.38A176,176,0,0,0,208.89,2.87Z" transform="translate(-0.01 -0.02)"/><path class="cls-1" d="M146.18,75.13l19.41-35.27L114.41,11.4A176.59,176.59,0,0,0,72.49,34.15Z" transform="translate(-0.01 -0.02)"/><path class="cls-1" d="M168,35.47,187.35.33C183.92.13,180.47,0,177,0a176.79,176.79,0,0,0-56.33,9.14Z" transform="translate(-0.01 -0.02)"/><path class="cls-1" d="M34.89,181.68.59,162.61Q0,169.73,0,177a177.76,177.76,0,0,0,3.67,36l25,14.06Z" transform="translate(-0.01 -0.02)"/><path class="cls-1" d="M122.83,117.56,143.77,79.5,68.12,37.44q-5,3.88-9.64,8.1L53.89,79.23Z" transform="translate(-0.01 -0.02)"/><path class="cls-1" d="M255.13,83.92l73.54,40.86,10.46-19A176.89,176.89,0,0,0,317.05,68.7l-41-22.78Z" transform="translate(-0.01 -0.02)"/><path class="cls-1" d="M318,170.63,353.5,190.4q.5-6.64.5-13.4a177.84,177.84,0,0,0-3.33-34.23l-13.31-7.44Z" transform="translate(-0.01 -0.02)"/><path class="cls-1" d="M25.84,248.14V248L28,232.4,5.15,219.59a176.19,176.19,0,0,0,28.12,60.74L34,279c-.75-1-1.53-2-2.33-3.08C24.52,266.53,25.79,248.88,25.84,248.14Z" transform="translate(-0.01 -0.02)"/><polygon class="cls-1" points="183.03 204.52 203.16 167.94 124.77 124.36 104.64 160.94 183.03 204.52"/><path class="cls-1" d="M37.13,283.66l-.57,1q1.21,1.58,2.46,3.13A25.55,25.55,0,0,0,37.13,283.66Z" transform="translate(-0.01 -0.02)"/><polygon class="cls-1" points="150.54 77.54 228.93 121.12 248.34 85.85 169.95 42.27 150.54 77.54"/><polygon class="cls-1" points="205.57 163.56 226.52 125.51 148.13 81.92 127.18 119.98 205.57 163.56"/><polygon class="cls-1" points="326.2 129.14 252.71 88.28 233.3 123.55 306.79 164.42 326.2 129.14"/><path class="cls-1" d="M13.11,110.06l29.32,16.27,6-44.41-15.1-8.4A176.66,176.66,0,0,0,13.11,110.06Z" transform="translate(-0.01 -0.02)"/><polygon class="cls-1" points="285.39 213.66 265.26 250.24 267.67 251.58 287.8 215 285.39 213.66"/><path class="cls-1" d="M247,299.6l-21,38.08,10.66,6a176.56,176.56,0,0,0,45.65-24.42Z" transform="translate(-0.01 -0.02)"/><path class="cls-1" d="M339.77,131l9.52,5.29q-1.79-7.59-4.22-14.92Z" transform="translate(-0.01 -0.02)"/><path class="cls-1" d="M315.54,175,294.6,213.07l48,26.66a175.91,175.91,0,0,0,10.45-43.89Z" transform="translate(-0.01 -0.02)"/><polygon class="cls-1" points="262.85 254.63 242.6 291.43 245.01 292.77 265.26 255.96 262.85 254.63"/><path class="cls-1" d="M35.62,176.33l6-44.65-30.4-16.93A175.9,175.9,0,0,0,1.11,157.17Z" transform="translate(-0.01 -0.02)"/><path class="cls-1" d="M340.67,244.42l-48.51-27L272.06,254l48.27,26.84A176.69,176.69,0,0,0,340.67,244.42Z" transform="translate(-0.01 -0.02)"/><path class="cls-1" d="M269.67,258.41l-20.26,36.81,37.26,20.72a178,178,0,0,0,30.64-31Z" transform="translate(-0.01 -0.02)"/><path class="cls-1" d="M278.45,41.54,308,58a178,178,0,0,0-25.79-23.31Z" transform="translate(-0.01 -0.02)"/><path class="cls-2" d="M158,250.11,79.58,206.52,39.91,278.61a29.09,29.09,0,0,1,5.36,16.58,177.41,177.41,0,0,0,63.12,45Z" transform="translate(-0.01 -0.02)"/><path class="cls-1" d="M49.2,76.63,52.67,51A178,178,0,0,0,36.36,69.5Z" transform="translate(-0.01 -0.02)"/><polygon class="cls-1" points="219.25 333.87 221.65 335.22 242.6 297.15 240.19 295.81 219.25 333.87"/><path class="cls-1" d="M223.61,342.06l-3.68,6.68q5.25-1.31,10.37-2.92Z" transform="translate(-0.01 -0.02)"/><polygon class="cls-1" points="180.62 208.9 102.23 165.32 81.97 202.13 160.37 245.71 180.62 208.9"/><polygon class="cls-1" points="39.57 184.27 33.38 229.69 54.55 241.59 75.19 204.08 39.57 184.27"/><path class="cls-1" d="M32.67,235l-1.85,13.55c-.08,1.15-1,16.68,4.83,24.22l1,1.32L52.14,246Z" transform="translate(-0.01 -0.02)"/><polygon class="cls-1" points="258.48 252.2 184.99 211.33 164.74 248.14 238.23 289 258.48 252.2"/><polygon class="cls-1" points="46.38 134.27 40.29 178.95 77.6 199.7 97.86 162.89 46.38 134.27"/><polygon class="cls-1" points="214.89 331.42 235.82 293.38 162.33 252.52 141.57 290.23 214.89 331.42"/><path class="cls-1" d="M216.85,338.26l-7,12.67c1.18-.22,2.36-.45,3.53-.69l5.85-10.63Z" transform="translate(-0.01 -0.02)"/><path class="cls-1" d="M145.26,351.15l-28.4-16L113.07,342A175.67,175.67,0,0,0,145.26,351.15Z" transform="translate(-0.01 -0.02)"/><path class="cls-1" d="M158.9,353.08A179.12,179.12,0,0,0,203.58,352l8.91-16.2-73.31-41.18-19.91,36.19Z" transform="translate(-0.01 -0.02)"/><path class="cls-3" d="M208.29,146.3l-7-3.87.78-1.4,4-.38L204.28,137l.78-1.4,7,3.91-.71,1.26-5.06-2.93,1.88,3.89-4.3.43,5.16,2.89Z" transform="translate(-0.01 -0.02)"/><path class="cls-3" d="M212.78,138.33l-5.43-6.69.77-1.38,8.54,1.14-.76,1.35-2-.31-1.65,3,1.33,1.58Zm-1.46-4,1.17-2.09-3.32-.5Z" transform="translate(-0.01 -0.02)"/><path class="cls-3" d="M217.29,130.24l-7-3.91,1.35-2.41a3.69,3.69,0,0,1,2.27-2,5.11,5.11,0,0,1,5.21,2.91,3.7,3.7,0,0,1-.49,3Zm-.43-1.89.64-1.15a2.26,2.26,0,0,0,.33-1.88,4.2,4.2,0,0,0-3.62-2,2.26,2.26,0,0,0-1.43,1.26l-.64,1.15Z" transform="translate(-0.01 -0.02)"/><path class="cls-3" d="M221.38,123l-7-3.91.7-1.26,7,3.91Z" transform="translate(-0.01 -0.02)"/><path class="cls-3" d="M217.9,117.43a2,2,0,0,1-1.13-1.57,3.38,3.38,0,0,1,.48-2.07,4.64,4.64,0,0,1,1.54-1.6l1.23.69a3.54,3.54,0,0,0-1.5,1.43,2.51,2.51,0,0,0-.35,1.09.76.76,0,0,0,.4.75.69.69,0,0,0,.75-.06,4.58,4.58,0,0,0,.83-.7,10.94,10.94,0,0,1,.92-.85,2.27,2.27,0,0,1,1.21-.49,2.47,2.47,0,0,1,1.5.36,1.89,1.89,0,0,1,1,1.47,3.14,3.14,0,0,1-.42,2,5,5,0,0,1-1.88,2l-1.27-.71a3.77,3.77,0,0,0,1.8-1.64q.81-1.44,0-1.89a.91.91,0,0,0-.75-.08,1.86,1.86,0,0,0-.72.46l-.75.7a10.36,10.36,0,0,1-.82.66,1.81,1.81,0,0,1-.94.34A2,2,0,0,1,217.9,117.43Z" transform="translate(-0.01 -0.02)"/><path class="cls-3" d="M222.72,112.43a5.89,5.89,0,0,1-1.39-1,3.48,3.48,0,0,1-.75-1.09,2.9,2.9,0,0,1-.2-1.11,3.41,3.41,0,0,1,.16-1,5.85,5.85,0,0,1,1-1.83,3.41,3.41,0,0,1,.81-.69,3,3,0,0,1,1.06-.41,3.42,3.42,0,0,1,1.32.06,6.62,6.62,0,0,1,3,1.69,3.34,3.34,0,0,1,.75,1.1,3,3,0,0,1,.2,1.11,3.48,3.48,0,0,1-.16,1,6,6,0,0,1-1,1.83,3.46,3.46,0,0,1-.81.69,3,3,0,0,1-1,.41,3.43,3.43,0,0,1-1.33-.07A5.93,5.93,0,0,1,222.72,112.43Zm.69-1.26a5.27,5.27,0,0,0,1.39.57,1.71,1.71,0,0,0,1,0,2,2,0,0,0,.68-.44,3.36,3.36,0,0,0,.51-.71,4.07,4.07,0,0,0,.3-.64,2,2,0,0,0,.1-.65,1.4,1.4,0,0,0-.17-.68,2.77,2.77,0,0,0-.57-.7,6.07,6.07,0,0,0-2.4-1.29,1.68,1.68,0,0,0-1,0,2,2,0,0,0-.67.44,3.59,3.59,0,0,0-.51.72,4.11,4.11,0,0,0-.29.63,2,2,0,0,0-.1.65,1.44,1.44,0,0,0,.16.68,2.74,2.74,0,0,0,.55.69,5.11,5.11,0,0,0,1,.7Z" transform="translate(-0.01 -0.02)"/><path class="cls-3" d="M230.69,106.36l-7-3.91.8-1.43,7.18-.69-5.17-2.9.7-1.26,7,3.91-.79,1.41-7.24.69,5.21,2.92Z" transform="translate(-0.01 -0.02)"/><path class="cls-3" d="M236.83,95.43l-5.43-6.69.77-1.38,8.54,1.14-.76,1.35-2-.31-1.66,2.89L237.62,94Zm-1.46-4,1.17-2.09-3.32-.5Z" transform="translate(-0.01 -0.02)"/><path class="cls-3" d="M233.56,84.86l.75-1.34,6.53,1.06-4.32-5,.75-1.34,5.49,6.58L242,86.11Z" transform="translate(-0.01 -0.02)"/><path class="cls-3" d="M244.86,81.07l-7-3.91,2.6-4.65,1.13.63-1.9,3.39,1.77,1,1.65-2.94,1.19.66-1.65,2.94,1.77,1,1.9-3.39,1.13.63Z" transform="translate(-0.01 -0.02)"/><path class="cls-3" d="M243.2,121.69l.58-1q.68-.09,1.42-.24t1.59-.4a6.9,6.9,0,0,0,1.52-.64,2.41,2.41,0,0,0,.92-.85.86.86,0,0,0,0-.76,1.71,1.71,0,0,0-.82-.77,4.37,4.37,0,0,0-2.31-.49l.7-1.25a4.34,4.34,0,0,1,2.35.5h0a2.84,2.84,0,0,1,1.5,1.65,2.33,2.33,0,0,1-.22,1.81,3.75,3.75,0,0,1-1.77,1.51,11.25,11.25,0,0,1-2.74.86l2.51,1.4-.7,1.26Z" transform="translate(-0.01 -0.02)"/><path class="cls-3" d="M251.84,120.43a3.14,3.14,0,0,1,.61-.78,3,3,0,0,1,.85-.55,2.2,2.2,0,0,1,1.1-.16,3.2,3.2,0,0,1,1.27.39q2.48,1.38.63,4.68a6.21,6.21,0,0,1-1.22,1.6,3.82,3.82,0,0,1-1.23.8,3,3,0,0,1-1.18.17,3.68,3.68,0,0,1-1-.17,4.85,4.85,0,0,1-.75-.34,4.74,4.74,0,0,1-1.08-.89l.62-1.11a4.22,4.22,0,0,0,1,.77,2.52,2.52,0,0,0,.54.22,3.63,3.63,0,0,0,.7.11,1.75,1.75,0,0,0,.84-.17,2.14,2.14,0,0,0,.79-.63,2.34,2.34,0,0,1-1.47-.36,2.7,2.7,0,0,1-1.4-1.59A2.62,2.62,0,0,1,251.84,120.43Zm1.25.71a1.33,1.33,0,0,0-.16,1,1.37,1.37,0,0,0,.71.82,2.49,2.49,0,0,0,1.42.33l.11-.19a4.36,4.36,0,0,0,.41-1,1.49,1.49,0,0,0-.2-1.38,1.1,1.1,0,0,0-.34-.3,1.43,1.43,0,0,0-.75-.21,1,1,0,0,0-.6.2,2.62,2.62,0,0,0-.38.35A1.91,1.91,0,0,0,253.09,121.14Z" transform="translate(-0.01 -0.02)"/><path class="cls-3" d="M258.29,122.6l.7-1.26,5.73,3.2-.7,1.26-2.24-1.25-3.2,5.73-1.26-.7,3.2-5.73Z" transform="translate(-0.01 -0.02)"/><path class="cls-3" d="M262.06,132.23l3.9-7,1.26.7-1.62,2.9,3,1.66,1.62-2.9,1.26.7-3.9,7-1.26-.7,1.62-2.9-3-1.66-1.62,2.9Z" transform="translate(-0.01 -0.02)"/><path class="cls-3" d="M275.44,133.12A2,2,0,0,1,277,132a3.39,3.39,0,0,1,2.07.48,4.63,4.63,0,0,1,1.61,1.54l-.69,1.23a3.55,3.55,0,0,0-1.43-1.5,2.51,2.51,0,0,0-1.09-.35.75.75,0,0,0-.75.41.69.69,0,0,0,.06.75,4.65,4.65,0,0,0,.7.83,10.47,10.47,0,0,1,.85.92,2.28,2.28,0,0,1,.5,1.21,2.48,2.48,0,0,1-.36,1.51,1.89,1.89,0,0,1-1.47,1,3.14,3.14,0,0,1-2-.42,5,5,0,0,1-2-1.87l.71-1.27a3.77,3.77,0,0,0,1.64,1.8q1.44.81,1.89,0a.9.9,0,0,0,.08-.75,1.84,1.84,0,0,0-.46-.72l-.7-.75a10.48,10.48,0,0,1-.66-.82,1.81,1.81,0,0,1-.34-.94A2,2,0,0,1,275.44,133.12Z" transform="translate(-0.01 -0.02)"/><path class="cls-3" d="M281.35,135.49l.7-1.26,5.73,3.2-.7,1.26-2.24-1.25-3.2,5.73-1.26-.7,3.2-5.73Z" transform="translate(-0.01 -0.02)"/><path class="cls-3" d="M219.87,163.69l.58-1q.68-.09,1.42-.24t1.59-.4a6.89,6.89,0,0,0,1.52-.64,2.42,2.42,0,0,0,.93-.85.86.86,0,0,0,0-.76,1.71,1.71,0,0,0-.82-.77,4.37,4.37,0,0,0-2.31-.49l.7-1.25a4.34,4.34,0,0,1,2.35.5h0a2.83,2.83,0,0,1,1.5,1.65,2.33,2.33,0,0,1-.22,1.81,3.75,3.75,0,0,1-1.76,1.51,11.26,11.26,0,0,1-2.74.86l2.51,1.4-.7,1.26Z" transform="translate(-0.01 -0.02)"/><path class="cls-3" d="M227.14,165a2,2,0,0,1,.51-.61,1.6,1.6,0,0,1,.58-.3,2.83,2.83,0,0,1,.54-.09,1.59,1.59,0,0,1,.41,0h.15l-.09-.1a2,2,0,0,1-.17-.27,1.81,1.81,0,0,1-.17-.43,1.51,1.51,0,0,1,0-.55,1.83,1.83,0,0,1,.23-.67,2,2,0,0,1,1.38-1,3.45,3.45,0,0,1,3.33,1.86,2,2,0,0,1-.17,1.73,1.59,1.59,0,0,1-1.57.9h-.26l.11.12a2.65,2.65,0,0,1,.21.32,2.05,2.05,0,0,1,.22.51,1.88,1.88,0,0,1,0,.65,1.94,1.94,0,0,1-.25.76,2.29,2.29,0,0,1-1.55,1.22,3.75,3.75,0,0,1-3.71-2.07A2.3,2.3,0,0,1,227.14,165Zm1.28.66a1.44,1.44,0,0,0,2.42,1.56l.09-.16a1.09,1.09,0,0,0,.08-.9,1.82,1.82,0,0,0-1.86-1A1.09,1.09,0,0,0,228.42,165.68Zm1.94-2.9a.93.93,0,0,0-.09.88,1.47,1.47,0,0,0,1.42.8.93.93,0,0,0,.71-.55,1,1,0,0,0,.09-.78,1.42,1.42,0,0,0-1.51-.84A1,1,0,0,0,230.36,162.78Z" transform="translate(-0.01 -0.02)"/><path class="cls-3" d="M235,164.61l.71-1.28,5.73,3.2-.7,1.26-2.24-1.25-3.2,5.73-1.26-.7,3.2-5.73Z" transform="translate(-0.01 -0.02)"/><path class="cls-3" d="M238.74,174.24l3.9-7,1.26.7-1.62,2.9,3,1.66,1.62-2.9,1.26.7-3.9,7-1.26-.7,1.62-2.9-3-1.66-1.62,2.9Z" transform="translate(-0.01 -0.02)"/><path class="cls-3" d="M252.12,175.12a2,2,0,0,1,1.57-1.13,3.37,3.37,0,0,1,2.07.48,4.62,4.62,0,0,1,1.61,1.54l-.69,1.23a3.53,3.53,0,0,0-1.43-1.5,2.51,2.51,0,0,0-1.09-.35.76.76,0,0,0-.75.4.69.69,0,0,0,.06.75,4.6,4.6,0,0,0,.7.83,10.79,10.79,0,0,1,.85.92,2.28,2.28,0,0,1,.49,1.21,2.48,2.48,0,0,1-.36,1.51,1.89,1.89,0,0,1-1.47,1,3.15,3.15,0,0,1-2-.42,5,5,0,0,1-2-1.87l.71-1.27a3.78,3.78,0,0,0,1.64,1.8q1.44.81,1.89,0a.9.9,0,0,0,.08-.75,1.85,1.85,0,0,0-.46-.72l-.7-.75a10.47,10.47,0,0,1-.66-.82,1.81,1.81,0,0,1-.34-.94A2,2,0,0,1,252.12,175.12Z" transform="translate(-0.01 -0.02)"/><path class="cls-3" d="M258,177.49l.7-1.26,5.73,3.2-.7,1.26-2.24-1.25-3.2,5.73-1.26-.7,3.2-5.73Z" transform="translate(-0.01 -0.02)"/><path class="cls-3" d="M197.2,206.33l.58-1q.68-.09,1.42-.24t1.59-.4a6.9,6.9,0,0,0,1.52-.64,2.41,2.41,0,0,0,.92-.85.85.85,0,0,0,0-.76,1.71,1.71,0,0,0-.82-.77,4.37,4.37,0,0,0-2.31-.49l.7-1.25a4.34,4.34,0,0,1,2.35.5h0a2.84,2.84,0,0,1,1.5,1.65,2.34,2.34,0,0,1-.22,1.81,3.75,3.75,0,0,1-1.77,1.51,11.25,11.25,0,0,1-2.74.86l2.51,1.4-.7,1.26Z" transform="translate(-0.01 -0.02)"/><path class="cls-3" d="M206.38,204l.7-1.26,4.94,2.76-.56,1-6.23,4.38-1.49-.83,6-4.17Z" transform="translate(-0.01 -0.02)"/><path class="cls-3" d="M211.93,207.07l.7-1.26,5.73,3.2-.7,1.26L215.42,209l-3.2,5.73-1.26-.7,3.2-5.73Z" transform="translate(-0.01 -0.02)"/><path class="cls-3" d="M215.67,216.7l3.9-7,1.26.7-1.62,2.9,3,1.66,1.62-2.9,1.26.7-3.9,7-1.26-.7,1.62-2.9-3-1.66-1.62,2.9Z" transform="translate(-0.01 -0.02)"/><path class="cls-3" d="M229.09,217.59a2,2,0,0,1,1.57-1.13,3.37,3.37,0,0,1,2.07.48,4.64,4.64,0,0,1,1.6,1.54l-.69,1.23a3.54,3.54,0,0,0-1.43-1.5,2.5,2.5,0,0,0-1.09-.35.75.75,0,0,0-.75.4.69.69,0,0,0,.06.75,4.57,4.57,0,0,0,.7.83,10.63,10.63,0,0,1,.85.92,2.27,2.27,0,0,1,.49,1.21,2.48,2.48,0,0,1-.36,1.51,1.89,1.89,0,0,1-1.47,1,3.15,3.15,0,0,1-2-.42,5,5,0,0,1-2-1.87l.71-1.27a3.77,3.77,0,0,0,1.64,1.8q1.44.81,1.89,0A.89.89,0,0,0,231,222a1.84,1.84,0,0,0-.46-.72c-.22-.23-.46-.47-.7-.75a10.31,10.31,0,0,1-.66-.82,1.81,1.81,0,0,1-.34-.94A2,2,0,0,1,229.09,217.59Z" transform="translate(-0.01 -0.02)"/><path class="cls-3" d="M235,220l.7-1.26,5.73,3.2-.7,1.26-2.24-1.25-3.2,5.73-1.26-.7,3.2-5.73Z" transform="translate(-0.01 -0.02)"/><path class="cls-3" d="M176.53,246.33l.58-1q.68-.09,1.42-.24t1.59-.4a6.89,6.89,0,0,0,1.52-.64,2.41,2.41,0,0,0,.93-.85.85.85,0,0,0,0-.76,1.71,1.71,0,0,0-.82-.77,4.37,4.37,0,0,0-2.31-.49l.7-1.25a4.34,4.34,0,0,1,2.35.5h0a2.83,2.83,0,0,1,1.5,1.65,2.33,2.33,0,0,1-.22,1.81A3.74,3.74,0,0,1,182,245.4a11.26,11.26,0,0,1-2.74.86l2.51,1.4-.7,1.26Z" transform="translate(-0.01 -0.02)"/><path class="cls-3" d="M184.45,246.56a6.21,6.21,0,0,1,1.22-1.6,3.82,3.82,0,0,1,1.23-.8,3,3,0,0,1,1.18-.17,3.73,3.73,0,0,1,1,.17,4.79,4.79,0,0,1,.75.34,4.69,4.69,0,0,1,1.08.88l-.62,1.11a4.22,4.22,0,0,0-1-.77,2.43,2.43,0,0,0-.54-.22,3.64,3.64,0,0,0-.7-.11,1.74,1.74,0,0,0-.85.17,2.11,2.11,0,0,0-.79.63,2.35,2.35,0,0,1,1.48.36,2.69,2.69,0,0,1,1.4,1.59,2.63,2.63,0,0,1-.33,2,3.11,3.11,0,0,1-.61.78,3,3,0,0,1-.85.55,2.22,2.22,0,0,1-1.1.15,3.23,3.23,0,0,1-1.27-.42Q182.6,249.86,184.45,246.56Zm1.22.77-.11.19a4.16,4.16,0,0,0-.41,1,1.59,1.59,0,0,0,0,.86,1.63,1.63,0,0,0,.24.52,1.11,1.11,0,0,0,.34.3,1.44,1.44,0,0,0,.75.21,1,1,0,0,0,.6-.2,2.66,2.66,0,0,0,.38-.35,2,2,0,0,0,.22-.32,1.33,1.33,0,0,0,.16-1,1.37,1.37,0,0,0-.71-.82A2.46,2.46,0,0,0,185.67,247.33Z" transform="translate(-0.01 -0.02)"/><path class="cls-3" d="M191.56,247.24l.7-1.26,5.73,3.2-.7,1.26-2.24-1.25-3.2,5.73-1.26-.7,3.2-5.73Z" transform="translate(-0.01 -0.02)"/><path class="cls-3" d="M195.33,256.86l3.9-7,1.26.7-1.62,2.9,3,1.66,1.62-2.9,1.26.7-3.9,7-1.26-.7,1.62-2.9-3-1.66-1.62,2.9Z" transform="translate(-0.01 -0.02)"/><path class="cls-3" d="M208.67,257.75a2,2,0,0,1,1.57-1.13,3.4,3.4,0,0,1,2.07.48,4.63,4.63,0,0,1,1.6,1.54l-.69,1.23a3.55,3.55,0,0,0-1.43-1.5,2.52,2.52,0,0,0-1.09-.35.76.76,0,0,0-.75.41.69.69,0,0,0,.06.75,4.65,4.65,0,0,0,.7.83,10.6,10.6,0,0,1,.85.92,2.27,2.27,0,0,1,.49,1.21,2.49,2.49,0,0,1-.36,1.51,1.89,1.89,0,0,1-1.47,1,3.13,3.13,0,0,1-2-.42,5,5,0,0,1-2-1.87l.71-1.27a3.77,3.77,0,0,0,1.64,1.79q1.44.81,1.89,0a.9.9,0,0,0,.08-.75,1.86,1.86,0,0,0-.46-.72q-.34-.34-.7-.75a10.3,10.3,0,0,1-.66-.82,1.81,1.81,0,0,1-.34-1A2,2,0,0,1,208.67,257.75Z" transform="translate(-0.01 -0.02)"/><path class="cls-3" d="M214.62,260.12l.7-1.26,5.73,3.2-.7,1.26-2.24-1.25-3.2,5.73-1.26-.7,3.2-5.73Z" transform="translate(-0.01 -0.02)"/><path class="cls-3" d="M153.87,287l.58-1q.68-.09,1.42-.24t1.59-.4a6.9,6.9,0,0,0,1.52-.64,2.41,2.41,0,0,0,.92-.85.86.86,0,0,0,0-.76,1.71,1.71,0,0,0-.82-.77,4.37,4.37,0,0,0-2.31-.49l.7-1.25a4.34,4.34,0,0,1,2.35.5h0a2.84,2.84,0,0,1,1.5,1.65,2.33,2.33,0,0,1-.22,1.81,3.75,3.75,0,0,1-1.77,1.51,11.25,11.25,0,0,1-2.74.86l2.51,1.4-.7,1.26Z" transform="translate(-0.01 -0.02)"/><path class="cls-3" d="M162.21,286.93l2.26-3.15,3.85,2.15-.7,1.26-2.77-1.55-.42.6-.41.59a5.86,5.86,0,0,1,1,.43h0a3.6,3.6,0,0,1,.75.55,3,3,0,0,1,.56.76,1.84,1.84,0,0,1,.18,1A3.82,3.82,0,0,1,165.2,292a1.83,1.83,0,0,1-1,.4,2.75,2.75,0,0,1-.92-.08,3.87,3.87,0,0,1-.89-.37,5.31,5.31,0,0,1-1.85-1.67l.71-1.27a4.28,4.28,0,0,0,1.7,1.77,1.14,1.14,0,0,0,1.77-.43l.06-.1a1.21,1.21,0,0,0-.32-1.68l-.18-.1h0a3.18,3.18,0,0,0-1.7-.46Z" transform="translate(-0.01 -0.02)"/><path class="cls-3" d="M169,288l.7-1.26,5.73,3.2-.7,1.26-2.24-1.25-3.2,5.73-1.26-.7,3.2-5.73Z" transform="translate(-0.01 -0.02)"/><path class="cls-3" d="M172.78,297.59l3.9-7,1.26.7-1.62,2.9,3,1.66,1.62-2.9,1.26.7-3.9,7-1.26-.7,1.62-2.9-3-1.66-1.62,2.9Z" transform="translate(-0.01 -0.02)"/><path class="cls-3" d="M186.17,298.48a2,2,0,0,1,1.57-1.13,3.38,3.38,0,0,1,2.07.48,4.62,4.62,0,0,1,1.6,1.54l-.69,1.23a3.55,3.55,0,0,0-1.43-1.5,2.51,2.51,0,0,0-1.09-.35.76.76,0,0,0-.75.41.69.69,0,0,0,.06.75,4.61,4.61,0,0,0,.7.83,10.76,10.76,0,0,1,.85.92,2.27,2.27,0,0,1,.49,1.21,2.48,2.48,0,0,1-.36,1.51,1.89,1.89,0,0,1-1.47,1,3.14,3.14,0,0,1-2-.42,5,5,0,0,1-2-1.87l.71-1.27a3.77,3.77,0,0,0,1.64,1.8q1.44.81,1.89,0a.9.9,0,0,0,.08-.75,1.85,1.85,0,0,0-.46-.72q-.34-.34-.7-.75a10.29,10.29,0,0,1-.66-.82,1.81,1.81,0,0,1-.34-.94A2,2,0,0,1,186.17,298.48Z" transform="translate(-0.01 -0.02)"/><path class="cls-3" d="M192.07,300.85l.7-1.26,5.73,3.2-.7,1.26-2.24-1.25-3.2,5.73-1.26-.7,3.2-5.73Z" transform="translate(-0.01 -0.02)"/><path class="cls-3" d="M266.13,83.27l.72-1.28a4.33,4.33,0,0,0,1.6,1.61q1.48.83,2-.13a1.09,1.09,0,0,0,.07-1,2.08,2.08,0,0,0-1-1l-.89-.49.58-1,.93.52a1.52,1.52,0,0,0,1,.25.86.86,0,0,0,.62-.43.69.69,0,0,0,0-.8,2.32,2.32,0,0,0-.77-.66,3.64,3.64,0,0,0-1.93-.48l.72-1.29a4.68,4.68,0,0,1,2,.55,3.44,3.44,0,0,1,1.47,1.44,2,2,0,0,1-.16,1.89,1.67,1.67,0,0,1-1.61.84,2.09,2.09,0,0,1,.52,1.1,1.9,1.9,0,0,1-.25,1.22,2.54,2.54,0,0,1-.66.79,2,2,0,0,1-.79.39,2.73,2.73,0,0,1-.86,0,3.57,3.57,0,0,1-.83-.17,4.63,4.63,0,0,1-.75-.34A4.71,4.71,0,0,1,266.13,83.27Z" transform="translate(-0.01 -0.02)"/><path class="cls-3" d="M274.67,88.78q-2.76-1.54-.75-5.12t4.76-2q2.76,1.54.75,5.12T274.67,88.78Zm.5-4.42a6.67,6.67,0,0,0-.61,1.39,1.84,1.84,0,0,0-.07,1,1.52,1.52,0,0,0,.29.59,2,2,0,0,0,1.07.6,1.52,1.52,0,0,0,.65-.07,1.89,1.89,0,0,0,.8-.57,6.62,6.62,0,0,0,.87-1.25,6.82,6.82,0,0,0,.53-1.16,2.92,2.92,0,0,0,.18-.86,1.46,1.46,0,0,0-.12-.61,1.27,1.27,0,0,0-.29-.42,2.34,2.34,0,0,0-.86-.48,1.29,1.29,0,0,0-.51,0,1.42,1.42,0,0,0-.58.22,3,3,0,0,0-.64.6,6.89,6.89,0,0,0-.68,1Z" transform="translate(-0.01 -0.02)"/><path class="cls-3" d="M281.53,84.93l.7-1.26,5.73,3.2-.7,1.26L285,86.88l-3.2,5.73-1.26-.7,3.2-5.73Z" transform="translate(-0.01 -0.02)"/><path class="cls-3" d="M285.3,94.55l3.9-7,1.26.7-1.62,2.9,3,1.66,1.62-2.9,1.26.7-3.9,7-1.26-.7,1.62-2.9-3-1.66-1.62,2.9Z" transform="translate(-0.01 -0.02)"/><path class="cls-3" d="M298.67,95.44a2,2,0,0,1,1.57-1.13,3.39,3.39,0,0,1,2.07.48,4.62,4.62,0,0,1,1.6,1.54l-.69,1.23a3.54,3.54,0,0,0-1.43-1.5,2.5,2.5,0,0,0-1.09-.35.76.76,0,0,0-.75.4.69.69,0,0,0,.06.75,4.62,4.62,0,0,0,.7.83,10.91,10.91,0,0,1,.85.92,2.28,2.28,0,0,1,.49,1.21,2.47,2.47,0,0,1-.38,1.51,1.9,1.9,0,0,1-1.47,1,3.15,3.15,0,0,1-2-.42,5,5,0,0,1-2-1.87l.71-1.27a3.79,3.79,0,0,0,1.64,1.8q1.44.81,1.89,0a.9.9,0,0,0,.08-.75,1.86,1.86,0,0,0-.46-.72q-.34-.34-.7-.75a10.08,10.08,0,0,1-.66-.82,1.81,1.81,0,0,1-.34-.94A2,2,0,0,1,298.67,95.44Z" transform="translate(-0.01 -0.02)"/><path class="cls-3" d="M304.59,97.81l.7-1.26,5.73,3.2-.7,1.26-2.24-1.25-3.2,5.73-1.26-.7,3.2-5.73Z" transform="translate(-0.01 -0.02)"/><path class="cls-3" d="M286.36,190.55l-7-3.91,1.46-2.61a3.17,3.17,0,0,1,1.68-1.58,2.93,2.93,0,0,1,3.46,1.94,3.18,3.18,0,0,1-.47,2.26l-.76,1.35,2.31,1.29Zm-2.69-3.22.7-1.26a1.81,1.81,0,0,0,.33-1.3A1.41,1.41,0,0,0,284,184a1.38,1.38,0,0,0-1.06-.19,1.84,1.84,0,0,0-.93,1l-.71,1.26Z" transform="translate(-0.01 -0.02)"/><path class="cls-3" d="M289.39,185.14,284,178.45l.77-1.38,8.54,1.14-.76,1.35-2-.31-1.66,3,1.33,1.58Zm-1.46-4,1.17-2.09-3.32-.5Z" transform="translate(-0.01 -0.02)"/><path class="cls-3" d="M293.87,177.13l-7-3.91,1.5-2.68A3.26,3.26,0,0,1,290,169a2.37,2.37,0,0,1,2,.25,2.26,2.26,0,0,1,1.2,2.69l3.7-.34-.85,1.52-3.4.29L292,174.5l2.46,1.38ZM291,173.85l.78-1.39a2.14,2.14,0,0,0,.33-1.13,1.39,1.39,0,0,0-1.69-1h0a2.19,2.19,0,0,0-.79.88l-.78,1.39Z" transform="translate(-0.01 -0.02)"/><path class="cls-3" d="M297.67,170.33l-7-3.91.71-1.26,3,1.66-1.48-4.29,1-1.69,1.49,4.53,5.66-.91-.88,1.57-4.34.65.37,1.13,2.26,1.27Z" transform="translate(-0.01 -0.02)"/><path class="cls-3" d="M303.32,160.27l-5.43-6.69.77-1.38,8.54,1.14-.76,1.35-2-.31-1.65,3,1.33,1.58Zm-1.46-4,1.17-2.09-3.32-.5Z" transform="translate(-0.01 -0.02)"/><path class="cls-3" d="M300.05,149.73l.75-1.34,6.53,1.06-4.32-5,.75-1.34,5.49,6.58-.72,1.29Z" transform="translate(-0.01 -0.02)"/><path class="cls-3" d="M311.35,145.93l-7-3.91,2.6-4.65,1.13.63-1.9,3.39,1.77,1,1.65-2.94,1.19.66-1.65,2.94,1.77,1,1.9-3.39,1.13.63Z" transform="translate(-0.01 -0.02)"/><path class="cls-3" d="M125.38,91.88l-3.15-2.26,2.15-3.85,1.26.7-1.55,2.77.6.42.59.41a5.79,5.79,0,0,1,.43-1h0a3.59,3.59,0,0,1,.55-.75,3,3,0,0,1,.76-.56,1.83,1.83,0,0,1,1-.17,3.83,3.83,0,0,1,2.34,1.31,1.84,1.84,0,0,1,.4,1,2.77,2.77,0,0,1-.08.92,3.81,3.81,0,0,1-.37.88,5.31,5.31,0,0,1-1.67,1.85l-1.26-.71a4.28,4.28,0,0,0,1.77-1.7,1.14,1.14,0,0,0-.43-1.77l-.1,0a1.2,1.2,0,0,0-1.78.5h0a3.18,3.18,0,0,0-.46,1.7Z" transform="translate(-0.01 -0.02)"/><path class="cls-3" d="M126.43,85.08l-1.26-.7,3.21-5.73,1.26.7-1.25,2.24,5.73,3.21-.71,1.26-5.74-3.21Z" transform="translate(-0.01 -0.02)"/><path class="cls-3" d="M136.06,81.33l-7-3.91.71-1.26,2.9,1.62,1.66-3-2.9-1.62.71-1.26,7,3.91-.7,1.26-2.9-1.62-1.66,3,2.9,1.62Z" transform="translate(-0.01 -0.02)"/><path class="cls-3" d="M141.75,71.17l-5.43-6.69.77-1.38,8.54,1.14-.76,1.35-2-.31-1.66,3,1.33,1.58Zm-1.46-4,1.17-2.09-3.32-.5Z" transform="translate(-0.01 -0.02)"/><path class="cls-3" d="M138.48,60.63l.75-1.34,6.53,1.06-4.32-5,.75-1.34,5.49,6.58L147,61.88Z" transform="translate(-0.01 -0.02)"/><path class="cls-3" d="M149.78,56.83l-7-3.91,2.6-4.65,1.13.63-1.84,3.43,1.77,1,1.65-2.94,1.19.66L147.63,54l1.77,1,1.9-3.39,1.13.63Z" transform="translate(-0.01 -0.02)"/><path class="cls-3" d="M29.34,176.46l-7.93-1.08.39-2.86a4.33,4.33,0,0,1,.25-1,3.12,3.12,0,0,1,.47-.82,1.7,1.7,0,0,1,.78-.54,2.32,2.32,0,0,1,1.1-.09,1.64,1.64,0,0,1,1.41,1.15,1.85,1.85,0,0,1,2-1.13,3.12,3.12,0,0,1,.59.14,2.12,2.12,0,0,1,.58.33,1.86,1.86,0,0,1,.5.57,2.64,2.64,0,0,1,.28.9,4.5,4.5,0,0,1,0,1.29Zm-4.5-2.07.21-1.51q.17-1.24-.79-1.37T23,172.71l-.19,1.41Zm3.44.47.22-1.64q.21-1.54-.94-1.7T26.32,173l-.22,1.59Z" transform="translate(-0.01 -0.02)"/><path class="cls-3" d="M30.37,168.91l-7.93-1.08.41-3a3.26,3.26,0,0,1,1-2.08,2.38,2.38,0,0,1,2-.52A2.26,2.26,0,0,1,28,164.29l3.32-1.67-.23,1.72L28,165.85l-.17,1.28,2.8.38Zm-3.91-2,.21-1.58a2.15,2.15,0,0,0-.11-1.17,1.39,1.39,0,0,0-1.94-.32l-.06,0a2.19,2.19,0,0,0-.41,1.1l-.21,1.58Z" transform="translate(-0.01 -0.02)"/><path class="cls-3" d="M27.4,161a5.86,5.86,0,0,1-1.68-.46,3.47,3.47,0,0,1-1.09-.74,2.88,2.88,0,0,1-.6-1,3.47,3.47,0,0,1-.23-1,5.92,5.92,0,0,1,.28-2.08,3.45,3.45,0,0,1,.5-.94,3,3,0,0,1,.83-.77,3.43,3.43,0,0,1,1.25-.43,6.64,6.64,0,0,1,3.42.46,3.37,3.37,0,0,1,1.1.75,3,3,0,0,1,.59,1,3.47,3.47,0,0,1,.23,1,5.89,5.89,0,0,1-.28,2.08,3.45,3.45,0,0,1-.5.94,3,3,0,0,1-.83.77,3.42,3.42,0,0,1-1.26.42A5.92,5.92,0,0,1,27.4,161Zm.18-1.43a5.22,5.22,0,0,0,1.5,0,1.7,1.7,0,0,0,.93-.41,2,2,0,0,0,.47-.66,3.38,3.38,0,0,0,.22-.85,4.23,4.23,0,0,0,0-.71,2,2,0,0,0-.14-.64,1.41,1.41,0,0,0-.41-.58,2.81,2.81,0,0,0-.78-.44,6.11,6.11,0,0,0-2.71-.32,1.68,1.68,0,0,0-.93.41,2,2,0,0,0-.46.66,3.58,3.58,0,0,0-.21.86,4,4,0,0,0,0,.7,2,2,0,0,0,.14.64,1.44,1.44,0,0,0,.4.57,2.72,2.72,0,0,0,.77.44A5.09,5.09,0,0,0,27.58,159.61Z" transform="translate(-0.01 -0.02)"/><path class="cls-3" d="M32.49,153.33,25,149.1l.21-1.57,8.36-2.08L33.35,147l-2,.47-.46,3.36,1.82,1Zm-2.82-3.21.32-2.37-3.27.76Z" transform="translate(-0.01 -0.02)"/><path class="cls-3" d="M33.74,144.12,25.81,143l.37-2.74a3.7,3.7,0,0,1,1.39-2.66,5.11,5.11,0,0,1,5.91.8,3.7,3.7,0,0,1,.63,2.94Zm-1.09-1.6.18-1.31a2.26,2.26,0,0,0-.38-1.86,4.2,4.2,0,0,0-4.11-.56,2.26,2.26,0,0,0-.87,1.69l-.18,1.31Z" transform="translate(-0.01 -0.02)"/><path class="cls-3" d="M26.8,135.69l.19-1.43,6.22-1-5.71-2.73.17-1.24,6-1.08-5.54-2.55.19-1.43,7.59,3.62-.18,1.35-5.78,1,5.3,2.54-.2,1.47Z" transform="translate(-0.01 -0.02)"/><path class="cls-3" d="M36.31,125.18l-7.5-4.23.21-1.57,8.36-2.07-.21,1.53-2,.47-.46,3.36,1.82,1ZM33.48,122l.32-2.37-3.27.76Z" transform="translate(-0.01 -0.02)"/><path class="cls-3" d="M29.39,116.65l.23-1.72,3.51-1.66-2.94-2.53.23-1.72,4.11,3.72,3.4.46-.19,1.43-3.4-.46Z" transform="translate(-0.01 -0.02)"/><path class="cls-4" d="M70.75,271v-6.67h1.33L74,267.12l1.93-2.79h1.33V271h-1.2v-4.93L74,269l-2.06-3V271Z" transform="translate(-0.01 -0.02)"/><path class="cls-4" d="M78.37,271,81,264.33h1.32L85,271H83.67l-.61-1.61H80.27L79.66,271Zm2.3-2.67h2l-1-2.62Z" transform="translate(-0.01 -0.02)"/><path class="cls-4" d="M86.1,271v-6.67h2.3a3.08,3.08,0,0,1,2.35.85,4.26,4.26,0,0,1,0,5,3.08,3.08,0,0,1-2.35.85Zm1.2-1.08h1.1a1.88,1.88,0,0,0,1.5-.53,3.5,3.5,0,0,0,0-3.46,1.88,1.88,0,0,0-1.5-.53H87.3Z" transform="translate(-0.01 -0.02)"/><path class="cls-4" d="M93,271v-6.67h1.2V271Z" transform="translate(-0.01 -0.02)"/><path class="cls-4" d="M95.67,266.2a1.69,1.69,0,0,1,.68-1.46,2.82,2.82,0,0,1,1.7-.49,3.85,3.85,0,0,1,1.79.46v1.18a3,3,0,0,0-1.65-.51,2.09,2.09,0,0,0-.94.19.63.63,0,0,0-.38.6.57.57,0,0,0,.35.52,3.82,3.82,0,0,0,.84.32,9,9,0,0,1,1,.32,1.89,1.89,0,0,1,.85.68,2.07,2.07,0,0,1,.35,1.24,1.58,1.58,0,0,1-.67,1.31,2.62,2.62,0,0,1-1.63.51,4.2,4.2,0,0,1-2.2-.56v-1.18a3.14,3.14,0,0,0,1.92.64q1.38,0,1.38-.77a.75.75,0,0,0-.25-.58,1.53,1.53,0,0,0-.63-.34l-.82-.26a8.45,8.45,0,0,1-.82-.32,1.52,1.52,0,0,1-.63-.55A1.63,1.63,0,0,1,95.67,266.2Z" transform="translate(-0.01 -0.02)"/><path class="cls-4" d="M101.27,267.66a4.91,4.91,0,0,1,.19-1.44,2.9,2.9,0,0,1,.49-1,2.42,2.42,0,0,1,.73-.6,2.87,2.87,0,0,1,.83-.31,4.93,4.93,0,0,1,1.75,0,2.87,2.87,0,0,1,.83.31,2.49,2.49,0,0,1,.73.6,2.84,2.84,0,0,1,.5,1,5.52,5.52,0,0,1,0,2.88,2.8,2.8,0,0,1-.5,1,2.52,2.52,0,0,1-.73.6,2.88,2.88,0,0,1-.83.31,4.93,4.93,0,0,1-1.75,0,2.88,2.88,0,0,1-.83-.31,2.46,2.46,0,0,1-.73-.6,2.86,2.86,0,0,1-.49-1A4.94,4.94,0,0,1,101.27,267.66Zm1.2,0a4.37,4.37,0,0,0,.15,1.24,1.42,1.42,0,0,0,.44.72,1.65,1.65,0,0,0,.6.31,2.77,2.77,0,0,0,.73.08,3.45,3.45,0,0,0,.59,0,1.69,1.69,0,0,0,.51-.19,1.17,1.17,0,0,0,.43-.4,2.33,2.33,0,0,0,.28-.69,5.07,5.07,0,0,0,0-2.27,1.4,1.4,0,0,0-.44-.72,1.64,1.64,0,0,0-.6-.31,3,3,0,0,0-.73-.08,3.38,3.38,0,0,0-.58,0,1.68,1.68,0,0,0-.52.19,1.18,1.18,0,0,0-.43.39,2.26,2.26,0,0,0-.27.68,4.25,4.25,0,0,0-.16,1Z" transform="translate(-0.01 -0.02)"/><path class="cls-4" d="M108.91,271v-6.67h1.36l3.43,4.94v-4.94h1.2V271h-1.34l-3.45-5v5Z" transform="translate(-0.01 -0.02)"/><path class="cls-4" d="M59,278.6a1.69,1.69,0,0,1,.68-1.46,2.82,2.82,0,0,1,1.7-.49,3.85,3.85,0,0,1,1.79.46v1.22a3,3,0,0,0-1.65-.51,2.09,2.09,0,0,0-.94.19.63.63,0,0,0-.38.6.57.57,0,0,0,.35.52,3.82,3.82,0,0,0,.84.32,9,9,0,0,1,1,.32,1.89,1.89,0,0,1,.85.68,2.07,2.07,0,0,1,.35,1.24,1.58,1.58,0,0,1-.67,1.31,2.62,2.62,0,0,1-1.63.51,4.2,4.2,0,0,1-2.2-.56v-1.21a3.14,3.14,0,0,0,1.92.64q1.38,0,1.38-.77a.75.75,0,0,0-.25-.58,1.53,1.53,0,0,0-.63-.34l-.82-.26a8.45,8.45,0,0,1-.82-.32,1.52,1.52,0,0,1-.63-.55A1.63,1.63,0,0,1,59,278.6Z" transform="translate(-0.01 -0.02)"/><path class="cls-4" d="M64.67,280.06a4.89,4.89,0,0,1,.19-1.44,2.9,2.9,0,0,1,.49-1,2.42,2.42,0,0,1,.73-.6,2.86,2.86,0,0,1,.83-.31,4.72,4.72,0,0,1,.88-.08,4.64,4.64,0,0,1,.87.08,2.87,2.87,0,0,1,.83.31,2.48,2.48,0,0,1,.73.6,2.85,2.85,0,0,1,.5,1,4.9,4.9,0,0,1,.19,1.44,5,5,0,0,1-.16,1.31,3.09,3.09,0,0,1-.41.94,2.36,2.36,0,0,1-.62.62,2.71,2.71,0,0,1-.73.36,3.8,3.8,0,0,1-.78.15.72.72,0,0,0,.34.66,1.52,1.52,0,0,0,.81.21v.94q-2.14,0-2.14-1.82a3.38,3.38,0,0,1-.94-.26,2.75,2.75,0,0,1-.81-.56,2.49,2.49,0,0,1-.6-1A4.93,4.93,0,0,1,64.67,280.06ZM66,278.83a5.21,5.21,0,0,0,0,2.47,1.43,1.43,0,0,0,.44.72,1.59,1.59,0,0,0,.6.31,3.43,3.43,0,0,0,1.46,0,1.59,1.59,0,0,0,.6-.31,1.43,1.43,0,0,0,.44-.72,5.21,5.21,0,0,0,0-2.47,1.43,1.43,0,0,0-.44-.72,1.6,1.6,0,0,0-.6-.31,3.43,3.43,0,0,0-1.46,0,1.6,1.6,0,0,0-.6.31,1.43,1.43,0,0,0-.4.71Z" transform="translate(-0.01 -0.02)"/><path class="cls-4" d="M72.17,280.57v-3.84h1.2v4a1.85,1.85,0,0,0,.38,1.29,2,2,0,0,0,2.42,0,1.84,1.84,0,0,0,.38-1.29v-4h1.2v3.85a3,3,0,0,1-.73,2.14,3.18,3.18,0,0,1-4.13,0A3,3,0,0,1,72.17,280.57Z" transform="translate(-0.01 -0.02)"/><path class="cls-4" d="M78.54,283.4l2.65-6.67h1.32l2.65,6.67H83.87l-.61-1.61H80.44l-.61,1.61Zm2.31-2.69h2l-1-2.62Z" transform="translate(-0.01 -0.02)"/><path class="cls-4" d="M86.19,283.4v-6.67h2.56a2.72,2.72,0,0,1,1.82.56,2,2,0,0,1,.65,1.59,1.89,1.89,0,0,1-1.46,2l1.75,2.55H90.06l-1.59-2.35H87.39v2.35Zm1.2-3.45h1.28a1.79,1.79,0,0,0,1-.22,1.16,1.16,0,0,0,0-1.64h0a1.82,1.82,0,0,0-1-.21H87.34Z" transform="translate(-0.01 -0.02)"/><path class="cls-4" d="M92.67,283.4v-6.67h4.44v1.08H93.87v1.69h2.81v1.13H93.87v1.7h3.24v1.08Z" transform="translate(-0.01 -0.02)"/><path class="cls-4" d="M102,283.4v-6.67h2.5a2.64,2.64,0,0,1,1.83.58,2.44,2.44,0,0,1,0,3.31,2.65,2.65,0,0,1-1.83.58h-1.29v2.2Zm1.2-3.28h1.2a1.52,1.52,0,0,0,1.08-.29,1.18,1.18,0,0,0,.29-.86,1.14,1.14,0,0,0-.29-.85,1.54,1.54,0,0,0-1.08-.29h-1.2Z" transform="translate(-0.01 -0.02)"/><path class="cls-4" d="M107.13,283.4l2.65-6.67h1.32l2.65,6.67h-1.29l-.61-1.61H109l-.61,1.61Zm2.31-2.69h2l-1-2.62Z" transform="translate(-0.01 -0.02)"/><path class="cls-4" d="M114.77,283.4v-6.67h2.56a2.72,2.72,0,0,1,1.82.56,2,2,0,0,1,.65,1.59,1.89,1.89,0,0,1-1.46,2l1.75,2.55h-1.42l-1.59-2.35H116v2.35Zm1.2-3.45h1.33a1.79,1.79,0,0,0,1-.22,1.16,1.16,0,0,0,0-1.64h0a1.82,1.82,0,0,0-1-.21H116Z" transform="translate(-0.01 -0.02)"/><path class="cls-4" d="M121.25,283.4v-6.67h1.2v2.82l2.52-2.82h1.61l-2.69,2.93,3,3.74h-1.5l-2.24-2.89-.67.73v2.16Z" transform="translate(-0.01 -0.02)"/><rect class="cls-5" x="44.32" y="71.48" width="16" height="16" rx="1" ry="1"/><path class="cls-6" d="M49.12,83.12v-7H50.9l1.66,2.39,1.65-2.39H56v7H54.18V78.76l-1.62,2.33-1.63-2.33v4.36Z" transform="translate(-0.01 -0.02)"/><rect class="cls-5" x="266.82" y="219.48" width="16" height="16" rx="1" ry="1"/><path class="cls-6" d="M271.67,231.12v-7h1.78l1.66,2.39,1.65-2.39h1.78v7h-1.87v-4.36l-1.62,2.33-1.63-2.33v4.36Z" transform="translate(-0.01 -0.02)"/><polygon class="cls-7" points="183.07 169.81 185.67 175.07 191.47 175.91 187.27 180 188.26 185.78 183.07 183.05 177.88 185.78 178.87 180 174.68 175.91 180.48 175.07 183.07 169.81"/></svg>